<svg 
 xmlns="http://www.w3.org/2000/svg"
 xmlns:xlink="http://www.w3.org/1999/xlink"
 width="24px" height="24px">
<path fill-rule="evenodd"  fill="rgb(38, 58, 65)"
 d="M21.659,10.025 L19.882,10.025 L18.520,11.810 C18.431,11.927 18.294,11.995 18.148,11.995 C18.147,11.995 18.147,11.995 18.147,11.995 C18.001,11.995 17.863,11.927 17.775,11.812 L16.401,10.025 L14.622,10.025 C13.329,10.025 12.276,8.973 12.276,7.681 L12.276,2.337 C12.276,1.045 13.329,-0.007 14.622,-0.007 L21.659,-0.007 C22.953,-0.007 24.005,1.045 24.005,2.337 L24.005,7.681 C24.005,8.973 22.953,10.025 21.659,10.025 ZM23.067,2.337 C23.067,1.562 22.435,0.931 21.659,0.931 L14.622,0.931 C13.846,0.931 13.215,1.562 13.215,2.337 L13.215,7.681 C13.215,8.456 13.846,9.087 14.622,9.087 L16.633,9.087 C16.778,9.087 16.916,9.155 17.005,9.270 L18.145,10.755 L19.277,9.272 C19.365,9.155 19.503,9.087 19.650,9.087 L21.659,9.087 C22.435,9.087 23.067,8.456 23.067,7.681 L23.067,7.681 L23.067,2.337 ZM18.610,5.051 L18.610,5.782 C18.610,6.040 18.400,6.250 18.141,6.250 C17.881,6.250 17.671,6.040 17.671,5.782 L17.671,4.937 C17.671,4.564 17.927,4.247 18.292,4.165 C18.626,4.090 18.851,3.787 18.827,3.444 C18.804,3.105 18.530,2.831 18.190,2.808 C17.996,2.794 17.812,2.859 17.671,2.991 C17.530,3.122 17.452,3.301 17.452,3.494 C17.452,3.752 17.242,3.963 16.983,3.963 C16.724,3.963 16.514,3.752 16.514,3.494 C16.514,3.045 16.703,2.612 17.031,2.305 C17.364,1.995 17.799,1.841 18.255,1.872 C19.059,1.927 19.708,2.576 19.763,3.380 C19.816,4.149 19.337,4.834 18.610,5.051 ZM18.141,6.981 C18.264,6.981 18.385,7.031 18.472,7.118 C18.560,7.206 18.610,7.326 18.610,7.450 C18.610,7.574 18.560,7.694 18.472,7.781 C18.385,7.869 18.264,7.919 18.141,7.919 C18.017,7.919 17.896,7.869 17.809,7.781 C17.722,7.694 17.671,7.574 17.671,7.450 C17.671,7.326 17.722,7.206 17.809,7.118 C17.896,7.031 18.017,6.981 18.141,6.981 ZM8.659,9.606 L14.383,15.326 L14.855,14.854 C14.855,14.854 14.855,14.854 14.855,14.853 L14.855,14.853 L16.038,13.671 C16.544,13.166 17.217,12.887 17.933,12.887 C18.649,12.887 19.322,13.166 19.828,13.671 L23.220,17.061 C23.726,17.567 24.005,18.239 24.005,18.955 C24.005,19.670 23.726,20.343 23.220,20.849 L22.326,21.742 C20.871,23.196 18.936,23.997 16.878,23.997 C14.820,23.997 12.885,23.196 11.429,21.742 L8.087,18.401 C7.903,18.218 7.903,17.921 8.087,17.739 C8.270,17.555 8.567,17.555 8.750,17.739 L12.093,21.079 C13.371,22.356 15.070,23.060 16.878,23.060 C18.389,23.060 19.825,22.568 21.002,21.659 L15.187,15.848 L14.714,16.320 C14.531,16.503 14.234,16.503 14.051,16.320 L7.664,9.937 C7.576,9.849 7.526,9.730 7.526,9.606 C7.526,9.481 7.576,9.362 7.664,9.274 L9.651,7.289 C10.330,6.610 10.330,5.506 9.651,4.827 L6.262,1.441 C5.583,0.762 4.478,0.762 3.799,1.441 L2.948,2.291 L6.551,5.891 C6.734,6.075 6.734,6.371 6.551,6.555 C6.459,6.646 6.339,6.692 6.219,6.692 C6.099,6.692 5.979,6.646 5.887,6.555 L2.325,2.994 C0.284,5.644 0.477,9.471 2.905,11.897 L6.201,15.191 C6.384,15.374 6.384,15.671 6.201,15.854 C6.018,16.037 5.721,16.037 5.538,15.854 L2.242,12.560 C-0.762,9.558 -0.762,4.673 2.242,1.670 L3.136,0.777 C4.181,-0.267 5.881,-0.267 6.926,0.777 L10.315,4.164 C11.359,5.208 11.359,6.907 10.315,7.951 L8.659,9.606 ZM21.705,21.036 L22.557,20.185 C22.886,19.857 23.067,19.420 23.067,18.955 C23.067,18.490 22.885,18.053 22.556,17.724 L19.165,14.335 C18.836,14.006 18.398,13.825 17.933,13.825 C17.468,13.825 17.031,14.006 16.702,14.335 L15.851,15.185 L21.705,21.036 ZM6.889,7.362 C6.889,7.238 6.939,7.117 7.027,7.030 C7.114,6.943 7.235,6.893 7.358,6.893 C7.482,6.893 7.603,6.943 7.690,7.030 C7.777,7.117 7.828,7.238 7.828,7.362 C7.828,7.485 7.777,7.606 7.690,7.693 C7.603,7.780 7.482,7.830 7.358,7.830 C7.235,7.830 7.114,7.780 7.027,7.693 C6.939,7.606 6.889,7.485 6.889,7.362 ZM7.222,16.405 C7.345,16.405 7.466,16.455 7.554,16.543 C7.641,16.630 7.691,16.751 7.691,16.874 C7.691,16.998 7.641,17.119 7.554,17.206 C7.466,17.293 7.345,17.343 7.222,17.343 C7.099,17.343 6.977,17.293 6.890,17.206 C6.803,17.119 6.753,16.998 6.753,16.874 C6.753,16.751 6.803,16.630 6.890,16.543 C6.977,16.455 7.099,16.405 7.222,16.405 Z"/>
</svg>