<svg 
 xmlns="http://www.w3.org/2000/svg"
 xmlns:xlink="http://www.w3.org/1999/xlink"
 width="23px" height="21px">
<path fill-rule="evenodd"  fill="rgb(38, 58, 65)"
 d="M22.619,20.999 L0.381,20.999 C0.171,20.999 -0.000,20.831 -0.000,20.624 L-0.000,9.011 C-0.000,8.880 0.068,8.766 0.171,8.699 L0.170,8.699 L3.107,6.782 L3.107,0.375 C3.107,0.168 3.277,-0.000 3.488,-0.000 L19.512,-0.000 C19.722,-0.000 19.893,0.168 19.893,0.375 L19.893,6.782 L22.829,8.699 C22.932,8.766 23.000,8.880 23.000,9.011 L23.000,20.624 C23.000,20.831 22.829,20.999 22.619,20.999 ZM21.355,20.249 L11.500,13.818 L1.645,20.249 L21.355,20.249 ZM3.107,7.682 L1.645,8.636 L3.107,8.636 L3.107,7.682 ZM3.107,9.386 L1.912,9.386 L3.107,10.010 L3.107,9.386 ZM0.762,9.634 L0.762,19.925 L9.522,14.209 L0.762,9.634 ZM19.131,0.750 L3.869,0.750 L3.869,10.408 L10.245,13.737 L11.289,13.055 C11.417,12.972 11.583,12.972 11.710,13.055 L12.755,13.737 L19.131,10.408 L19.131,0.750 ZM19.893,7.681 L19.893,8.636 L21.355,8.636 L19.893,7.681 ZM19.893,9.386 L19.893,10.010 L21.088,9.386 L19.893,9.386 ZM22.238,9.634 L13.478,14.209 L22.238,19.925 L22.238,9.634 ZM8.084,6.499 L8.084,6.389 C8.084,4.535 9.616,3.026 11.500,3.026 C13.383,3.026 14.916,4.535 14.916,6.389 L14.916,6.665 C14.916,7.391 14.316,7.981 13.579,7.981 C13.100,7.981 12.679,7.731 12.443,7.357 C12.153,7.608 11.774,7.760 11.359,7.760 C10.452,7.760 9.714,7.033 9.714,6.140 C9.714,5.246 10.452,4.520 11.359,4.520 C12.266,4.520 13.005,5.246 13.005,6.140 L13.005,6.666 C13.005,6.977 13.262,7.231 13.579,7.231 C13.896,7.231 14.154,6.977 14.154,6.666 L14.154,6.389 C14.154,4.948 12.963,3.776 11.500,3.776 C10.036,3.776 8.846,4.948 8.846,6.389 L8.846,6.499 C8.846,7.940 10.036,9.112 11.500,9.112 L14.535,9.112 C14.745,9.112 14.916,9.280 14.916,9.487 C14.916,9.694 14.745,9.862 14.535,9.862 L11.500,9.862 C9.616,9.862 8.084,8.354 8.084,6.499 ZM11.359,5.270 C10.872,5.270 10.476,5.660 10.476,6.140 C10.476,6.619 10.872,7.009 11.359,7.009 C11.846,7.009 12.243,6.619 12.243,6.140 C12.243,5.660 11.846,5.270 11.359,5.270 Z"/>
</svg>