<svg 
 xmlns="http://www.w3.org/2000/svg"
 xmlns:xlink="http://www.w3.org/1999/xlink"
 width="25px" height="25px">
<path fill-rule="evenodd"  fill="rgb(38, 58, 65)"
 d="M20.011,18.056 L24.894,24.208 C25.011,24.355 25.033,24.555 24.952,24.724 C24.870,24.893 24.699,25.000 24.512,25.000 L0.485,25.000 C0.298,25.000 0.127,24.893 0.045,24.724 C-0.036,24.555 -0.014,24.355 0.102,24.208 L4.986,18.056 C5.079,17.939 5.219,17.871 5.368,17.871 L9.646,17.871 L5.994,12.143 C5.137,10.859 4.685,9.361 4.685,7.812 C4.685,3.505 8.190,-0.000 12.498,-0.000 C16.807,-0.000 20.312,3.505 20.312,7.812 C20.312,9.361 19.859,10.859 19.003,12.143 L15.351,17.871 L19.628,17.871 C19.777,17.871 19.918,17.939 20.011,18.056 ZM23.501,24.023 L21.834,21.923 L18.881,21.923 L20.548,24.023 L23.501,24.023 ZM19.301,24.023 L17.634,21.923 L7.362,21.923 L5.696,24.023 L19.301,24.023 ZM1.496,24.023 L4.449,24.023 L6.115,21.923 L3.163,21.923 L1.496,24.023 ZM5.604,18.847 L3.938,20.947 L6.891,20.947 L8.557,18.847 L5.604,18.847 ZM8.138,20.947 L11.608,20.947 L10.269,18.847 L9.804,18.847 L8.138,20.947 ZM18.182,11.614 C18.184,11.611 18.185,11.609 18.188,11.606 C18.938,10.481 19.335,9.170 19.335,7.812 C19.335,4.043 16.268,0.976 12.498,0.976 C8.729,0.976 5.661,4.043 5.661,7.812 C5.661,9.170 6.058,10.481 6.809,11.606 C6.811,11.609 6.813,11.611 6.815,11.614 C7.448,12.606 11.877,19.552 12.498,20.527 C12.745,20.140 17.861,12.117 18.182,11.614 ZM15.193,18.847 L14.728,18.847 L13.389,20.947 L16.859,20.947 L15.193,18.847 ZM16.440,18.847 L18.106,20.947 L21.059,20.947 L19.393,18.847 L16.440,18.847 ZM12.246,18.192 C12.015,18.053 11.941,17.752 12.080,17.522 L13.885,14.528 C14.024,14.296 14.325,14.222 14.555,14.361 C14.786,14.501 14.861,14.800 14.722,15.032 L12.916,18.026 C12.778,18.256 12.478,18.332 12.246,18.192 ZM15.428,12.695 C15.698,12.695 15.917,12.914 15.917,13.183 C15.917,13.453 15.698,13.672 15.428,13.672 C15.159,13.672 14.940,13.453 14.940,13.183 C14.940,12.914 15.159,12.695 15.428,12.695 ZM7.615,7.812 C7.615,5.120 9.806,2.930 12.498,2.930 C15.191,2.930 17.382,5.120 17.382,7.812 C17.382,10.524 15.179,12.695 12.498,12.695 C9.818,12.695 7.615,10.525 7.615,7.812 ZM16.405,7.812 C16.405,5.658 14.653,3.906 12.498,3.906 C10.344,3.906 8.592,5.658 8.592,7.812 C8.592,9.986 10.358,11.718 12.498,11.718 C14.639,11.718 16.405,9.986 16.405,7.812 Z"/>
</svg>